<svg width="50" height="50" viewBox="0 0 50 50" fill="none" xmlns="http://www.w3.org/2000/svg">
<path d="M1.07126 24.7008C1.07009 28.9017 2.17617 33.0037 4.27936 36.6192L0.870117 48.9723L13.6088 45.6576C17.1322 47.561 21.0798 48.5584 25.0914 48.5587H25.102C38.345 48.5587 49.1252 37.8643 49.1309 24.7196C49.1334 18.35 46.6362 12.3605 42.099 7.85427C37.5625 3.34845 31.5293 0.8657 25.101 0.862793C11.8563 0.862793 1.07692 11.5566 1.07145 24.7008" fill="white"/>
<path d="M18.8838 14.3698C18.4178 13.3421 17.9275 13.3213 17.4844 13.3033C17.1216 13.2878 16.7068 13.289 16.2924 13.289C15.8776 13.289 15.2037 13.4438 14.634 14.0611C14.0638 14.6789 12.457 16.1719 12.457 19.2085C12.457 22.2452 14.6858 25.18 14.9965 25.5923C15.3076 26.0037 19.2991 32.4347 25.6208 34.9087C30.8747 36.9647 31.9439 36.5558 33.0841 36.4527C34.2246 36.35 36.764 34.9601 37.2821 33.5188C37.8006 32.0777 37.8006 30.8424 37.6452 30.5843C37.4897 30.3271 37.0749 30.1727 36.453 29.8642C35.831 29.5556 32.7731 28.0622 32.203 27.8562C31.6328 27.6504 31.2182 27.5477 30.8034 28.1657C30.3887 28.7828 29.1976 30.1727 28.8346 30.5843C28.472 30.9969 28.1089 31.0483 27.4871 30.7395C26.8648 30.4299 24.8618 29.7789 22.4854 27.6764C20.6364 26.0403 19.3882 24.02 19.0254 23.4019C18.6625 22.7849 18.9865 22.4504 19.2984 22.1428C19.5778 21.8663 19.9205 21.4221 20.2318 21.0618C20.5419 20.7014 20.6454 20.4442 20.8528 20.0326C21.0604 19.6205 20.9565 19.2601 20.8013 18.9514C20.6454 18.6426 19.4368 15.5901 18.8838 14.3698Z" fill="#EFC3A9"/>
<defs>
<linearGradient id="paint0_linear_46_82" x1="2413.91" y1="4811.81" x2="2413.91" y2="0.862793" gradientUnits="userSpaceOnUse">
<stop stop-color="#1FAF38"/>
<stop offset="1" stop-color="#60D669"/>
</linearGradient>
</defs>
</svg>
